<svg width="304.000000" height="80.000000" viewBox="0 0 304 80" fill="none" xmlns="http://www.w3.org/2000/svg" xmlns:xlink="http://www.w3.org/1999/xlink">
	<desc>
			Created with Pixso.
	</desc>
	<defs>
		<clipPath id="clip8_126">
			<rect id="apple 1" width="50.000000" height="50.000000" transform="translate(36.000000 16.000000)" fill="white" fill-opacity="0"/>
		</clipPath>
	</defs>
	<rect id="Rectangle 54" x="0.000002" rx="40.000000" width="304.000000" height="80.000000" fill="#FF0000" fill-opacity="1.000000"/>
	<path id="App Store" d="M185.823 65.8806Q187.923 66.3828 190.144 66.3828Q193.214 66.3828 195.355 65.4609Q197.503 64.5312 198.573 62.9453Q199.106 62.1623 199.375 61.2975Q199.651 60.4105 199.651 59.4375Q199.651 57.3673 198.645 56.0885Q198.566 55.9871 198.48 55.8906Q197.865 55.1974 197.119 54.7003Q196.453 54.2562 195.683 53.9688Q194.05 53.3594 191.487 52.75Q189.026 52.2109 187.823 51.6484Q187.072 51.2973 186.79 50.7178Q186.62 50.369 186.62 49.9375Q186.62 49.4661 186.793 49.0699Q187.044 48.4946 187.659 48.0781Q188.706 47.375 190.878 47.375Q190.902 47.375 190.927 47.3751Q194.012 47.3888 197.089 49.1328L198.69 45.2031Q197.151 44.2422 195.105 43.7344Q194.675 43.6261 194.241 43.5406Q192.607 43.2188 190.909 43.2188Q187.839 43.2188 185.706 44.1484Q183.581 45.0703 182.526 46.6562Q182.078 47.3302 181.82 48.0705Q181.472 49.0722 181.472 50.1953Q181.472 52.2651 182.471 53.5706Q182.55 53.6744 182.636 53.7734Q183.332 54.5718 184.191 55.1109Q184.778 55.4792 185.44 55.7266Q187.073 56.3359 189.636 56.9453Q191.3 57.3281 192.269 57.6484Q193.245 57.9688 193.87 58.5Q194.203 58.7784 194.358 59.1341Q194.495 59.4472 194.495 59.8203Q194.495 60.2217 194.353 60.5642Q194.108 61.1549 193.44 61.5703Q192.386 62.2266 190.175 62.2266Q188.19 62.2266 186.206 61.5859Q184.222 60.9453 182.784 59.8906L181.026 63.7891Q182.526 64.9453 185.003 65.6641Q185.411 65.782 185.823 65.8806ZM109.008 61.2031L119.406 61.2031L121.391 66L126.828 66L116.812 43.6016L111.695 43.6016L101.711 66L107.023 66L109.008 61.2031ZM212.246 65.9844Q213.316 65.7109 214.05 65.1719L212.706 61.6484Q212.533 61.7824 212.345 61.8883Q211.63 62.2891 210.691 62.2891Q209.836 62.2891 209.303 61.8751Q209.198 61.7933 209.105 61.6953Q209.089 61.6786 209.074 61.6616Q208.55 61.0711 208.55 60.0156L208.55 53.0078L212.839 53.0078L212.839 49.1719L208.55 49.1719L208.55 44.9766L203.558 44.9766L203.558 49.1719L200.902 49.1719L200.902 53.0078L203.558 53.0078L203.558 60.0781Q203.558 62.8028 204.908 64.3469Q205.064 64.5251 205.238 64.6875Q205.287 64.7339 205.338 64.779Q207.008 66.2578 209.988 66.2578Q211.175 66.2578 212.246 65.9844ZM142.485 49.1659Q140.915 48.5312 139.089 48.5312Q136.381 48.5312 134.657 49.8335Q134.122 50.237 133.682 50.7656L133.682 48.7812L128.917 48.7812L128.917 72.2109L133.909 72.2109L133.909 64.1797Q134.414 64.7344 135.018 65.141Q136.677 66.2578 139.089 66.2578Q140.915 66.2578 142.485 65.6232Q142.983 65.4217 143.456 65.1562Q144.348 64.6532 145.066 63.9671Q145.931 63.14 146.542 62.0469Q147.667 60.0469 147.667 57.3906Q147.667 54.7344 146.542 52.7344Q145.925 51.6308 145.05 50.8008Q144.338 50.1266 143.456 49.6328Q142.983 49.3674 142.485 49.1659ZM164.665 49.1659Q163.095 48.5312 161.269 48.5312Q158.561 48.5312 156.837 49.8335Q156.302 50.237 155.862 50.7656L155.862 48.7812L151.097 48.7812L151.097 72.2109L156.089 72.2109L156.089 64.1797Q156.594 64.7344 157.198 65.141Q158.857 66.2578 161.269 66.2578Q163.095 66.2578 164.665 65.6232Q165.163 65.4217 165.636 65.1562Q166.528 64.6532 167.246 63.9671Q168.111 63.14 168.722 62.0469Q169.847 60.0469 169.847 57.3906Q169.847 54.7344 168.722 52.7344Q168.105 51.6308 167.23 50.8008Q166.518 50.1266 165.636 49.6328Q165.163 49.3674 164.665 49.1659ZM219.956 65.24Q222.035 66.2578 224.612 66.2578Q227.29 66.2578 229.403 65.165Q229.441 65.1452 229.479 65.125Q230.807 64.4202 231.776 63.3814Q232.376 62.739 232.839 61.9688Q233.1 61.5361 233.306 61.0782Q234.057 59.403 234.057 57.3906Q234.057 55.3782 233.306 53.7031Q233.1 53.2452 232.839 52.8125Q232.368 52.0295 231.756 51.3797Q230.793 50.3568 229.479 49.6641Q229.441 49.6439 229.403 49.624Q227.29 48.5312 224.612 48.5312Q222.035 48.5312 219.956 49.5491Q219.842 49.605 219.729 49.6641Q218.401 50.3618 217.429 51.3945Q216.822 52.0384 216.354 52.8125Q216.105 53.2282 215.906 53.6671Q215.143 55.3566 215.143 57.3906Q215.143 59.4247 215.906 61.1142Q216.105 61.5531 216.354 61.9688Q216.815 62.73 217.409 63.3664Q218.387 64.4152 219.729 65.125Q219.842 65.184 219.956 65.24ZM242.812 50.3927Q242.506 50.6987 242.25 51.0547L242.25 48.7812L237.485 48.7812L237.485 66L242.477 66L242.477 57.875Q242.477 55.4843 243.672 54.2889Q243.68 54.2812 243.688 54.2734Q243.854 54.1098 244.037 53.9684Q245.199 53.0703 247.055 53.0703Q247.336 53.0703 248.172 53.1328L248.172 48.5312Q246.188 48.5312 244.664 49.1719Q243.58 49.6245 242.812 50.3927ZM267.854 58.7969Q267.948 57.5547 267.948 57.4531Q267.948 54.8256 266.828 52.8254Q266.802 52.7797 266.776 52.7344Q266.155 51.6507 265.283 50.8361Q264.52 50.1238 263.565 49.6172Q263.269 49.4598 262.962 49.3253Q261.153 48.5312 258.995 48.5312Q256.824 48.5312 254.999 49.3246Q254.643 49.4792 254.3 49.6641Q253.213 50.2521 252.366 51.0844Q251.581 51.8554 251.003 52.8359Q250.696 53.3574 250.468 53.9114Q249.807 55.5151 249.807 57.3906Q249.807 59.4247 250.57 61.1142Q250.769 61.5531 251.018 61.9688Q251.365 62.5428 251.796 63.0459Q252.876 64.3092 254.479 65.125Q256.721 66.2578 259.636 66.2578Q263.457 66.2578 265.778 64.3917Q266.295 63.9764 266.737 63.4688L264.081 60.5938Q263.182 61.4531 262.143 61.8594Q261.104 62.2578 259.761 62.2578Q257.843 62.2578 256.544 61.3621Q256.519 61.3453 256.495 61.3281Q255.887 60.8976 255.486 60.3231Q255.02 59.6568 254.831 58.7969L267.854 58.7969ZM114.227 48.6875L117.773 57.2656L110.672 57.2656L114.227 48.6875ZM256.779 52.8492Q257.75 52.3047 259.026 52.3047Q260.197 52.3047 261.113 52.7881Q261.498 52.9918 261.839 53.2812Q262.215 53.5987 262.495 53.9855Q263.076 54.7886 263.245 55.8906L254.768 55.8906Q254.957 54.6752 255.62 53.8349Q255.865 53.5247 256.175 53.2656Q256.46 53.0281 256.779 52.8492ZM140.354 61.656Q139.426 62.1562 138.229 62.1562Q137.039 62.1562 136.113 61.6622Q135.543 61.3582 135.073 60.8672Q134.88 60.663 134.717 60.437Q133.846 59.2271 133.846 57.3906Q133.846 55.5724 134.706 54.3675Q134.873 54.1331 135.073 53.9219Q135.55 53.4203 136.131 53.1127Q137.051 52.625 138.229 52.625Q139.415 52.625 140.336 53.1189Q140.908 53.4253 141.378 53.9219Q141.587 54.1422 141.761 54.3878Q142.612 55.5877 142.612 57.3906Q142.612 59.2118 141.75 60.4167Q141.581 60.6539 141.378 60.8672Q140.915 61.3532 140.354 61.656ZM162.534 61.656Q161.606 62.1562 160.409 62.1562Q159.219 62.1562 158.293 61.6622Q157.723 61.3582 157.253 60.8672Q157.06 60.663 156.897 60.437Q156.026 59.2271 156.026 57.3906Q156.026 55.5724 156.886 54.3675Q157.053 54.1331 157.253 53.9219Q157.73 53.4203 158.311 53.1127Q159.231 52.625 160.409 52.625Q161.595 52.625 162.516 53.1189Q163.088 53.4253 163.558 53.9219Q163.767 54.1422 163.941 54.3878Q164.792 55.5877 164.792 57.3906Q164.792 59.2118 163.93 60.4167Q163.761 60.6539 163.558 60.8672Q163.095 61.3532 162.534 61.656ZM226.728 61.6622Q225.802 62.1562 224.612 62.1562Q223.455 62.1562 222.541 61.6852Q221.943 61.377 221.448 60.8672Q221.225 60.6359 221.042 60.3766Q220.198 59.1816 220.198 57.3906Q220.198 55.6178 221.031 54.4279Q221.218 54.1601 221.448 53.9219Q221.95 53.4015 222.558 53.0899Q223.466 52.625 224.612 52.625Q225.791 52.625 226.711 53.1127Q227.291 53.4203 227.768 53.9219Q227.978 54.1422 228.152 54.3878Q229.003 55.5877 229.003 57.3906Q229.003 59.2118 228.141 60.4167Q227.971 60.6539 227.768 60.8672Q227.298 61.3582 226.728 61.6622Z" fill="#FFFFFF" fill-opacity="1.000000" fill-rule="evenodd"/>
	<path id="Download on the" d="M160.807 16.645L158.557 16.645L158.557 30L160.807 30L160.807 16.645ZM195.672 30L195.672 16.645L193.422 16.645L193.422 21.5757Q193.147 21.2582 192.817 21.0181Q192.475 20.7698 192.073 20.6045Q191.282 20.2793 190.328 20.2793Q189.143 20.2793 188.162 20.7274Q187.994 20.8044 187.832 20.8945Q187.325 21.1739 186.919 21.559Q186.437 22.0159 186.096 22.6216Q186.075 22.6593 186.054 22.6974Q185.468 23.7869 185.468 25.1924Q185.468 26.5961 186.049 27.6907Q186.072 27.7338 186.096 27.7764Q186.446 28.4028 186.944 28.8712Q187.341 29.244 187.832 29.5166Q187.983 29.5999 188.139 29.6718Q189.129 30.1274 190.328 30.1274Q191.317 30.1274 192.134 29.7847Q192.57 29.6029 192.932 29.3247Q193.252 29.0783 193.514 28.7563L193.514 30L195.672 30ZM248.024 20.9536Q247.035 20.2793 245.586 20.2793Q244.58 20.2793 243.758 20.5957Q243.052 20.8691 242.539 21.3493Q242.458 21.4248 242.383 21.5054L242.383 16.645L240.133 16.645L240.133 30L242.383 30L242.383 25.1396Q242.383 23.7825 243.058 23.039Q243.08 23.0146 243.103 22.9907Q243.264 22.8242 243.45 22.6947Q244.1 22.2437 245.063 22.2437Q245.985 22.2437 246.552 22.6926Q246.66 22.7785 246.755 22.8809Q247.348 23.5181 247.348 24.7793L247.348 30L249.598 30L249.598 24.4937Q249.598 22.5061 248.606 21.4509Q248.554 21.3955 248.5 21.3428Q248.277 21.1261 248.024 20.9536ZM109.198 17.4009L103.692 17.4009L103.692 30L109.198 30Q111.215 30 112.78 29.2178Q113.801 28.7086 114.523 27.9237Q114.909 27.5029 115.21 27.0029Q115.32 26.8207 115.416 26.6313Q116.076 25.3322 116.076 23.6982Q116.076 22.0547 115.408 20.7533Q115.316 20.5723 115.21 20.3979Q114.909 19.8979 114.523 19.4771Q113.801 18.6923 112.78 18.1831Q111.215 17.4009 109.198 17.4009ZM237.317 29.9648Q237.884 29.8022 238.279 29.4771L237.647 27.8774Q237.582 27.9288 237.512 27.9734Q237.047 28.2729 236.39 28.2729Q235.826 28.2729 235.494 27.9958Q235.442 27.9531 235.397 27.9038Q235.058 27.5347 235.058 26.8315L235.058 22.2612L237.629 22.2612L237.629 20.4595L235.058 20.4595L235.058 18.2622L232.808 18.2622L232.808 20.4595L231.222 20.4595L231.222 22.2612L232.808 22.2612L232.808 26.8843Q232.808 28.3329 233.526 29.1512Q233.595 29.2291 233.67 29.3013Q233.715 29.3444 233.762 29.3853Q234.618 30.1274 236.117 30.1274Q236.75 30.1274 237.317 29.9648ZM111.527 27.4907Q110.477 28.0181 109.093 28.0181L106.034 28.0181L106.034 19.3784L109.093 19.3784Q110.477 19.3784 111.527 19.9102Q112.191 20.2447 112.661 20.7567Q112.939 21.0585 113.149 21.4219Q113.164 21.4481 113.179 21.4746Q113.716 22.4366 113.716 23.6982Q113.716 24.9506 113.187 25.9117Q113.168 25.9455 113.149 25.979Q112.939 26.3424 112.661 26.6442Q112.191 27.1562 111.527 27.4907ZM120.313 29.6371Q121.376 30.1274 122.664 30.1274Q124.034 30.1274 125.14 29.5864Q125.226 29.5444 125.31 29.499Q125.978 29.1373 126.478 28.6148Q126.853 28.2232 127.134 27.7412Q127.257 27.53 127.358 27.3083Q127.793 26.3489 127.793 25.1924Q127.793 24.0319 127.352 23.0742Q127.254 22.8604 127.134 22.6567Q126.863 22.1949 126.504 21.8166Q125.995 21.2805 125.31 20.9121Q125.213 20.8599 125.115 20.812Q124.019 20.2793 122.664 20.2793Q121.39 20.2793 120.337 20.7619Q120.185 20.8319 120.036 20.9121Q119.357 21.2774 118.85 21.8075Q118.484 22.1893 118.208 22.6567Q118.095 22.8503 118.001 23.0529Q117.554 24.0191 117.554 25.1924Q117.554 26.3618 117.995 27.3296Q118.091 27.5402 118.208 27.7412Q118.494 28.2289 118.876 28.6242Q119.374 29.1406 120.036 29.499Q120.173 29.5723 120.313 29.6371ZM154.118 20.9536Q153.129 20.2793 151.68 20.2793Q150.617 20.2793 149.769 20.6221Q149.169 20.8655 148.714 21.2708Q148.528 21.4362 148.367 21.6284L148.367 20.3892L146.227 20.3892L146.227 30L148.477 30L148.477 25.1396Q148.477 23.7825 149.152 23.039Q149.174 23.0146 149.197 22.9907Q149.358 22.8242 149.544 22.6947Q150.194 22.2437 151.157 22.2437Q152.079 22.2437 152.646 22.6926Q152.754 22.7785 152.849 22.8809Q153.442 23.5181 153.442 24.7793L153.442 30L155.692 30L155.692 24.4937Q155.692 22.5061 154.7 21.4509Q154.648 21.3955 154.594 21.3428Q154.371 21.1261 154.118 20.9536ZM165.727 29.6371Q166.79 30.1274 168.078 30.1274Q169.448 30.1274 170.554 29.5864Q170.64 29.5444 170.724 29.499Q171.392 29.1373 171.892 28.6148Q172.267 28.2232 172.548 27.7412Q172.671 27.53 172.772 27.3083Q173.207 26.3489 173.207 25.1924Q173.207 24.0319 172.766 23.0742Q172.668 22.8604 172.548 22.6567Q172.277 22.1949 171.918 21.8166Q171.409 21.2805 170.724 20.9121Q170.627 20.8599 170.529 20.812Q169.433 20.2793 168.078 20.2793Q166.804 20.2793 165.751 20.7619Q165.599 20.8319 165.45 20.9121Q164.771 21.2774 164.264 21.8075Q163.898 22.1893 163.622 22.6567Q163.509 22.8503 163.415 23.0529Q162.968 24.0191 162.968 25.1924Q162.968 26.3618 163.409 27.3296Q163.505 27.5402 163.622 27.7412Q163.908 28.2289 164.29 28.6242Q164.788 29.1406 165.45 29.499Q165.587 29.5723 165.727 29.6371ZM182.164 21.2988Q181.039 20.2793 178.912 20.2793Q177.725 20.2793 176.662 20.5869Q175.603 20.8901 174.847 21.4658L175.726 23.105Q176.266 22.6567 177.049 22.4062Q177.622 22.2206 178.207 22.1702Q178.424 22.1514 178.644 22.1514Q179.83 22.1514 180.432 22.6919Q180.553 22.7991 180.649 22.9246Q181.039 23.432 181.039 24.2388L181.039 24.3838L178.556 24.3838Q176.482 24.3838 175.519 25.166Q175.096 25.5103 174.859 25.9542Q174.557 26.5188 174.557 27.2446Q174.557 27.776 174.737 28.2372Q174.838 28.4969 174.996 28.7344Q175.048 28.8111 175.105 28.8839Q175.535 29.4324 176.249 29.7583Q177.062 30.1274 178.139 30.1274Q179.22 30.1274 179.984 29.7935Q180.604 29.5227 180.993 29.0584Q181.084 28.95 181.162 28.8311L181.162 30L183.289 30L183.289 24.3662Q183.289 22.5005 182.359 21.492Q182.266 21.3911 182.164 21.2988ZM205.561 29.6371Q206.624 30.1274 207.912 30.1274Q209.282 30.1274 210.388 29.5864Q210.474 29.5444 210.558 29.499Q211.226 29.1373 211.726 28.6148Q212.101 28.2232 212.382 27.7412Q212.505 27.53 212.606 27.3083Q213.041 26.3489 213.041 25.1924Q213.041 24.0319 212.6 23.0742Q212.502 22.8604 212.382 22.6567Q212.111 22.1949 211.752 21.8166Q211.243 21.2805 210.558 20.9121Q210.461 20.8599 210.363 20.812Q209.267 20.2793 207.912 20.2793Q206.638 20.2793 205.585 20.7619Q205.433 20.8319 205.284 20.9121Q204.605 21.2774 204.098 21.8075Q203.732 22.1893 203.456 22.6567Q203.343 22.8503 203.249 23.0529Q202.802 24.0191 202.802 25.1924Q202.802 26.3618 203.243 27.3296Q203.339 27.5402 203.456 27.7412Q203.742 28.2289 204.124 28.6242Q204.622 29.1406 205.284 29.499Q205.421 29.5723 205.561 29.6371ZM223.094 20.9536Q222.105 20.2793 220.656 20.2793Q219.593 20.2793 218.745 20.6221Q218.145 20.8655 217.69 21.2708Q217.504 21.4362 217.343 21.6284L217.343 20.3892L215.203 20.3892L215.203 30L217.453 30L217.453 25.1396Q217.453 23.7825 218.128 23.039Q218.15 23.0146 218.173 22.9907Q218.334 22.8242 218.52 22.6947Q219.17 22.2437 220.133 22.2437Q221.055 22.2437 221.622 22.6926Q221.73 22.7785 221.825 22.8809Q222.418 23.5181 222.418 24.7793L222.418 30L224.668 30L224.668 24.4937Q224.668 22.5061 223.676 21.4509Q223.624 21.3955 223.57 21.3428Q223.347 21.1261 223.094 20.9536ZM261.553 25.9131Q261.588 25.4824 261.588 25.2495Q261.588 23.7729 260.964 22.6479Q260.629 22.0407 260.153 21.5807Q259.746 21.1885 259.237 20.9033Q259.111 20.8321 258.981 20.769Q257.973 20.2793 256.727 20.2793Q255.546 20.2793 254.559 20.7178Q254.36 20.8061 254.17 20.9121Q253.593 21.2319 253.144 21.6802Q252.712 22.113 252.399 22.6655Q252.274 22.8859 252.174 23.117Q251.762 24.0652 251.762 25.1924Q251.762 26.3618 252.203 27.3296Q252.299 27.5402 252.416 27.7412Q252.654 28.147 252.963 28.4888Q253.51 29.0945 254.28 29.499Q255.488 30.1274 257.07 30.1274Q258.314 30.1274 259.303 29.7319Q260.023 29.4404 260.564 28.9503Q260.766 28.7682 260.942 28.5586L259.733 27.1743Q259.361 27.5525 258.915 27.7934Q258.133 28.2158 257.123 28.2158Q255.994 28.2158 255.196 27.7013Q255.119 27.6512 255.044 27.5962Q254.688 27.3321 254.448 26.9874Q254.125 26.5233 254.012 25.9131L261.553 25.9131ZM141.132 30L144.679 20.3892L142.679 20.3892L140.069 27.5171L137.476 20.3892L135.586 20.3892L132.941 27.4819L130.405 20.3892L128.278 20.3892L131.807 30L133.969 30L136.487 23.3774L138.97 30L141.132 30ZM255.394 22.3866Q255.981 22.0811 256.727 22.0811Q257.514 22.0811 258.116 22.4146Q258.355 22.5468 258.564 22.7314Q258.829 22.9633 259.018 23.2462Q259.355 23.7513 259.448 24.4189L253.994 24.4189Q254.101 23.7052 254.475 23.1831Q254.656 22.9304 254.899 22.7227Q255.131 22.5238 255.394 22.3866ZM124.04 27.88Q123.436 28.1982 122.664 28.1982Q121.884 28.1982 121.278 27.8729Q120.919 27.6798 120.621 27.3721Q120.443 27.1884 120.305 26.9787Q119.821 26.245 119.821 25.1924Q119.821 24.15 120.299 23.4199Q120.439 23.205 120.621 23.0171Q120.923 22.7035 121.288 22.5083Q121.89 22.1865 122.664 22.1865Q123.43 22.1865 124.03 22.5011Q124.406 22.6977 124.717 23.0171Q124.91 23.2147 125.057 23.4422Q125.525 24.1659 125.525 25.1924Q125.525 26.2291 125.051 26.9564Q124.906 27.1787 124.717 27.3721Q124.41 27.6855 124.04 27.88ZM169.454 27.88Q168.85 28.1982 168.078 28.1982Q167.298 28.1982 166.692 27.8729Q166.333 27.6798 166.035 27.3721Q165.857 27.1884 165.719 26.9787Q165.235 26.245 165.235 25.1924Q165.235 24.15 165.713 23.4198Q165.853 23.2049 166.035 23.0171Q166.337 22.7035 166.702 22.5083Q167.304 22.1865 168.078 22.1865Q168.844 22.1865 169.444 22.5011Q169.82 22.6977 170.131 23.0171Q170.324 23.2147 170.471 23.4422Q170.939 24.1659 170.939 25.1924Q170.939 26.2291 170.465 26.9564Q170.32 27.1787 170.131 27.3721Q169.824 27.6855 169.454 27.88ZM191.797 27.9572Q191.249 28.1982 190.596 28.1982Q189.955 28.1982 189.413 27.966Q189.272 27.9055 189.137 27.8291Q188.916 27.7026 188.726 27.5394Q188.361 27.2265 188.113 26.7788Q187.735 26.0933 187.735 25.1924Q187.735 24.2959 188.113 23.6104Q188.367 23.1495 188.742 22.8317Q188.925 22.6767 189.137 22.5557Q189.272 22.4793 189.413 22.4187Q189.955 22.1865 190.596 22.1865Q191.249 22.1865 191.797 22.4276Q191.927 22.4848 192.051 22.5557Q192.276 22.6836 192.469 22.8494Q192.832 23.1623 193.079 23.6104Q193.457 24.2959 193.457 25.1924Q193.457 26.0933 193.079 26.7788Q192.838 27.2137 192.485 27.5214Q192.286 27.6957 192.051 27.8291Q191.927 27.9 191.797 27.9572ZM209.288 27.88Q208.684 28.1982 207.912 28.1982Q207.132 28.1982 206.526 27.8729Q206.167 27.6798 205.869 27.3721Q205.691 27.1884 205.553 26.9787Q205.069 26.245 205.069 25.1924Q205.069 24.15 205.547 23.4199Q205.687 23.205 205.869 23.0171Q206.171 22.7035 206.536 22.5083Q207.138 22.1865 207.912 22.1865Q208.678 22.1865 209.278 22.5011Q209.654 22.6977 209.965 23.0171Q210.158 23.2147 210.305 23.4422Q210.773 24.1659 210.773 25.1924Q210.773 26.2291 210.299 26.9564Q210.154 27.1787 209.965 27.3721Q209.658 27.6855 209.288 27.88ZM179.921 28.2018Q179.335 28.4883 178.609 28.4883Q177.743 28.4883 177.255 28.1279Q177.021 27.9536 176.901 27.7206Q176.772 27.472 176.772 27.1567Q176.772 26.77 176.949 26.5003Q177.359 25.8779 178.714 25.8779L181.039 25.8779L181.039 26.9941Q180.898 27.3677 180.653 27.6515Q180.425 27.9153 180.107 28.1016Q180.016 28.1555 179.921 28.2018Z" fill="#FFFFFF" fill-opacity="1.000000" fill-rule="evenodd"/>
	<rect id="apple 1" width="50.000000" height="50.000000" transform="translate(36.000000 16.000000)" fill="#FFFFFF" fill-opacity="0"/>
	<g clip-path="url(#clip8_126)">
		<path id="Vector" d="M54.0913 66C46.6498 65.957 40.4943 50.7665 40.4943 43.0303C40.4943 30.3931 49.9743 27.6265 53.6278 27.6265C55.2743 27.6265 57.0324 28.2731 58.5831 28.8452C59.6675 29.2444 60.789 29.6564 61.4127 29.6564C61.786 29.6564 62.6658 29.3059 63.4426 28.9984C65.0991 28.3389 67.1605 27.5193 69.5608 27.5193C69.5651 27.5193 69.5709 27.5193 69.5751 27.5193C71.3675 27.5193 76.802 27.9126 80.0693 32.8193L80.8347 33.9694L79.7332 34.8005C78.1597 35.9878 75.2886 38.1537 75.2886 42.4438C75.2886 47.5249 78.5401 49.479 80.1022 50.4189C80.7918 50.8337 81.5056 51.2615 81.5056 52.197C81.5056 52.8079 76.6304 65.9242 69.5508 65.9242C67.8185 65.9242 66.5939 65.4034 65.5139 64.9443C64.421 64.4794 63.4782 64.0789 61.9204 64.0789C61.1308 64.0789 60.1322 64.4521 59.0751 64.8485C57.6305 65.3877 55.9953 66 54.1399 66L54.0913 66Z" fill="#FFFFFF" fill-opacity="1.000000" fill-rule="nonzero"/>
		<path id="Vector" d="M70.3109 16C70.4952 22.6481 65.7408 27.2601 60.992 26.9709C60.2095 21.6655 65.7402 16 70.3109 16Z" fill="#FFFFFF" fill-opacity="1.000000" fill-rule="nonzero"/>
	</g>
</svg>
