<svg width="304.000000" height="80.000000" viewBox="0 0 304 80" fill="none" xmlns="http://www.w3.org/2000/svg" xmlns:xlink="http://www.w3.org/1999/xlink">
	<desc>
			Created with Pixso.
	</desc>
	<defs>
		<clipPath id="clip8_136">
			<rect id="google-play 1" width="50.000000" height="50.000000" transform="translate(28.000000 16.000000)" fill="white" fill-opacity="0"/>
		</clipPath>
	</defs>
	<rect id="Rectangle 54" x="0.500000" y="0.500000" rx="39.500000" width="303.000000" height="79.000000" stroke="#FFFFFF" stroke-opacity="1.000000" stroke-width="1.000000"/>
	<path id="Google Play" d="M181.689 42.2578L176.697 42.2578L176.697 66L181.689 66L181.689 42.2578ZM244.393 42.2578L239.401 42.2578L239.401 66L244.393 66L244.393 42.2578ZM107.531 54.4453L102.789 54.4453L102.789 61.0078Q102.61 61.1038 102.427 61.1902Q100.776 61.9688 98.7578 61.9688Q96.8008 61.9688 95.2405 61.1819Q95.119 61.1207 95 61.0547Q94.1371 60.5762 93.4712 59.903Q92.8649 59.29 92.4219 58.5156Q92.3137 58.3257 92.2181 58.1295Q91.4922 56.6401 91.4922 54.7969Q91.4922 52.8541 92.2809 51.3155Q92.3485 51.1836 92.4219 51.0547Q92.8731 50.2622 93.4973 49.6445Q94.1592 48.9896 95.0156 48.5312Q95.0384 48.519 95.0613 48.5068Q96.709 47.6328 98.8203 47.6328Q100.388 47.6328 101.743 48.1697Q103.325 48.7968 104.617 50.1562L107.945 47.0859Q107.44 46.5034 106.862 46.0062Q105.57 44.8962 103.914 44.2109Q101.516 43.2188 98.5703 43.2188Q95.3623 43.2188 92.7372 44.4557Q92.479 44.5774 92.2266 44.7109Q90.5108 45.6165 89.2515 46.9524Q88.4465 47.8062 87.8281 48.8359Q87.478 49.4201 87.2055 50.0385Q86.25 52.2072 86.25 54.7969Q86.25 57.3668 87.191 59.5268Q87.4686 60.164 87.8281 60.7656Q88.4843 61.8582 89.3452 62.7542Q90.5649 64.0237 92.1953 64.8984Q92.4695 65.0443 92.7503 65.1759Q95.3269 66.3828 98.4688 66.3828Q98.8979 66.3828 99.3258 66.36Q101.328 66.2535 103.305 65.6484Q105.703 64.9141 107.531 63.5391L107.531 54.4453ZM231.088 44.5938Q228.9 43.6016 225.924 43.6016L216.228 43.6016L216.228 66L221.416 66L221.416 59.8203L225.924 59.8203Q228.9 59.8203 231.088 58.8516Q232.812 58.0845 233.91 56.7871Q234.21 56.4328 234.463 56.0391Q234.633 55.7751 234.778 55.4983Q235.65 53.8419 235.65 51.7266Q235.65 49.4849 234.689 47.7868Q234.582 47.597 234.463 47.4141Q234.238 47.0653 233.976 46.747Q232.864 45.3967 231.088 44.5938ZM229.181 54.5938Q227.97 55.6016 225.635 55.6016L221.416 55.6016L221.416 47.8203L225.635 47.8203Q227.97 47.8203 229.181 48.8359Q229.508 49.1061 229.747 49.4393Q230.4 50.3486 230.4 51.7266Q230.4 53.0584 229.775 53.9534Q229.527 54.3078 229.181 54.5938ZM115.608 65.24Q117.687 66.2578 120.264 66.2578Q122.942 66.2578 125.055 65.165Q125.093 65.1452 125.131 65.125Q126.459 64.4202 127.428 63.3814Q128.028 62.739 128.491 61.9688Q128.752 61.5361 128.958 61.0782Q129.71 59.403 129.71 57.3906Q129.71 55.3782 128.958 53.7031Q128.752 53.2452 128.491 52.8125Q128.02 52.0295 127.408 51.3797Q126.445 50.3568 125.131 49.6641Q125.093 49.6439 125.055 49.624Q122.942 48.5312 120.264 48.5312Q117.687 48.5312 115.608 49.5491Q115.494 49.605 115.381 49.6641Q114.053 50.3618 113.081 51.3945Q112.474 52.0384 112.006 52.8125Q111.757 53.2282 111.558 53.6671Q110.795 55.3566 110.795 57.3906Q110.795 59.4247 111.558 61.1142Q111.757 61.5531 112.006 61.9688Q112.467 62.73 113.061 63.3664Q114.039 64.4152 115.381 65.125Q115.494 65.184 115.608 65.24ZM136.668 65.24Q138.747 66.2578 141.324 66.2578Q144.002 66.2578 146.115 65.165Q146.153 65.1452 146.191 65.125Q147.519 64.4202 148.488 63.3814Q149.088 62.739 149.551 61.9688Q149.812 61.5361 150.018 61.0782Q150.77 59.403 150.77 57.3906Q150.77 55.3782 150.018 53.7031Q149.812 53.2452 149.551 52.8125Q149.08 52.0295 148.468 51.3797Q147.505 50.3568 146.191 49.6641Q146.153 49.6439 146.115 49.624Q144.002 48.5312 141.324 48.5312Q138.747 48.5312 136.668 49.5491Q136.554 49.605 136.441 49.6641Q135.113 50.3618 134.141 51.3945Q133.534 52.0384 133.066 52.8125Q132.817 53.2282 132.618 53.6671Q131.855 55.3566 131.855 57.3906Q131.855 59.4247 132.618 61.1142Q132.817 61.5531 133.066 61.9688Q133.527 62.73 134.121 63.3664Q135.099 64.4152 136.441 65.125Q136.554 65.184 136.668 65.24ZM171.954 63.1172L171.954 48.7812L167.22 48.7812L167.22 50.9922Q166.68 50.3111 166.002 49.8185Q164.231 48.5312 161.525 48.5312Q159.722 48.5312 158.15 49.134Q157.658 49.3226 157.189 49.5703Q156.173 50.1064 155.374 50.8693Q154.624 51.5849 154.064 52.5Q153.915 52.7443 153.785 52.9985Q152.915 54.7032 152.915 56.8516Q152.915 58.9523 153.752 60.6374Q153.896 60.9264 154.064 61.2031Q154.604 62.0822 155.321 62.779Q156.139 63.5747 157.189 64.1328Q157.658 64.3805 158.15 64.5692Q159.722 65.1719 161.525 65.1719Q164.196 65.1719 165.967 63.9095Q166.506 63.525 166.962 63.0234L166.962 63.7578Q166.962 66.0269 165.828 67.1905Q165.779 67.2408 165.728 67.2891Q164.501 68.4609 161.908 68.4609Q160.244 68.4609 158.579 67.9297Q156.915 67.4062 155.829 66.5156L153.845 70.0938Q155.314 71.25 157.556 71.8516Q159.798 72.4609 162.29 72.4609Q167.025 72.4609 169.486 70.1562Q169.584 70.0653 169.677 69.9705Q171.954 67.6716 171.954 63.1172ZM203.194 58.7969Q203.288 57.5547 203.288 57.4531Q203.288 54.8256 202.168 52.8254Q202.142 52.7797 202.116 52.7344Q201.495 51.6507 200.623 50.8361Q199.86 50.1238 198.905 49.6172Q198.609 49.4598 198.302 49.3253Q196.493 48.5312 194.335 48.5312Q192.164 48.5312 190.339 49.3246Q189.983 49.4792 189.64 49.6641Q188.553 50.2521 187.706 51.0844Q186.921 51.8554 186.343 52.8359Q186.036 53.3574 185.808 53.9114Q185.147 55.5151 185.147 57.3906Q185.147 59.4247 185.91 61.1142Q186.109 61.5531 186.358 61.9688Q186.705 62.5428 187.136 63.0459Q188.216 64.3092 189.819 65.125Q192.061 66.2578 194.976 66.2578Q198.797 66.2578 201.118 64.3917Q201.635 63.9764 202.077 63.4688L199.421 60.5938Q198.522 61.4531 197.483 61.8594Q196.444 62.2578 195.101 62.2578Q193.183 62.2578 191.884 61.3621Q191.859 61.3453 191.835 61.3281Q191.227 60.8976 190.825 60.3231Q190.36 59.6568 190.171 58.7969L203.194 58.7969ZM262.219 50.4375Q260.078 48.5312 256.078 48.5312Q254.559 48.5312 253.099 48.8233Q252.561 48.9309 252.031 49.0781Q250.062 49.6172 248.648 50.6094L250.445 54.0938Q251.375 53.3594 252.703 52.9297Q253.589 52.6378 254.496 52.5407Q254.948 52.4922 255.406 52.4922Q257.391 52.4922 258.383 53.375Q258.589 53.5589 258.753 53.7755Q259.375 54.598 259.375 55.8906L255.406 55.8906Q251.625 55.8906 249.82 57.2656Q249.045 57.8565 248.602 58.6364Q248.016 59.6713 248.016 61.0391Q248.016 62.0963 248.392 62.9961Q248.552 63.3795 248.781 63.7344Q248.857 63.8518 248.94 63.9641Q249.691 64.9809 251 65.5859Q252.461 66.2578 254.445 66.2578Q257.513 66.2578 259.031 64.7242Q259.412 64.3399 259.695 63.8594L259.695 66L264.367 66L264.367 56.1797Q264.367 52.7582 262.665 50.8781Q262.455 50.646 262.219 50.4375ZM277.969 67.0547L285.743 48.7812L280.946 48.7812L276.079 60.4609L271.25 48.7812L266.094 48.7812L273.555 66.125L273.485 66.2891Q272.977 67.4375 272.336 67.9297Q272.329 67.9357 272.321 67.9416Q271.683 68.4297 270.672 68.4297Q269.938 68.4297 269.18 68.1406Q268.588 67.9186 268.108 67.5506Q267.98 67.4524 267.86 67.3438L266.032 70.8984Q266.868 71.6328 268.172 72.0469Q269.165 72.3601 270.176 72.4364Q270.501 72.4609 270.829 72.4609Q273.028 72.4609 274.651 71.4935Q274.85 71.3751 275.04 71.2422Q276.782 70.0312 277.969 67.0547ZM192.119 52.8492Q193.09 52.3047 194.366 52.3047Q195.537 52.3047 196.453 52.7881Q196.838 52.9918 197.179 53.2812Q197.555 53.5987 197.835 53.9855Q198.416 54.7886 198.585 55.8906L190.108 55.8906Q190.297 54.6752 190.96 53.8349Q191.205 53.5247 191.515 53.2656Q191.8 53.0281 192.119 52.8492ZM122.38 61.6622Q121.454 62.1562 120.264 62.1562Q119.107 62.1562 118.193 61.6852Q117.595 61.377 117.1 60.8672Q116.877 60.6359 116.694 60.3766Q115.85 59.1816 115.85 57.3906Q115.85 55.6178 116.683 54.428Q116.87 54.1601 117.1 53.9219Q117.602 53.4015 118.21 53.0899Q119.118 52.625 120.264 52.625Q121.443 52.625 122.363 53.1127Q122.943 53.4203 123.42 53.9219Q123.63 54.1422 123.804 54.3878Q124.655 55.5877 124.655 57.3906Q124.655 59.2118 123.793 60.4167Q123.623 60.6539 123.42 60.8672Q122.95 61.3582 122.38 61.6622ZM143.44 61.6622Q142.514 62.1562 141.324 62.1562Q140.167 62.1562 139.253 61.6852Q138.655 61.377 138.16 60.8672Q137.937 60.6359 137.754 60.3766Q136.91 59.1816 136.91 57.3906Q136.91 55.6178 137.743 54.4279Q137.93 54.1601 138.16 53.9219Q138.662 53.4015 139.27 53.0899Q140.178 52.625 141.324 52.625Q142.503 52.625 143.423 53.1127Q144.003 53.4203 144.48 53.9219Q144.69 54.1422 144.864 54.3878Q145.715 55.5877 145.715 57.3906Q145.715 59.2118 144.853 60.4167Q144.683 60.6539 144.48 60.8672Q144.01 61.3582 143.44 61.6622ZM165.13 60.3878Q164.036 61.0703 162.517 61.0703Q161.02 61.0703 159.923 60.4078Q159.566 60.1921 159.251 59.9062Q158.769 59.465 158.468 58.9229Q157.97 58.0254 157.97 56.8516Q157.97 55.6545 158.484 54.7487Q158.781 54.2239 159.251 53.7969Q159.575 53.5005 159.945 53.279Q161.035 52.625 162.517 52.625Q164.022 52.625 165.109 53.299Q165.455 53.5137 165.759 53.7969Q166.208 54.2101 166.498 54.7149Q167.025 55.6321 167.025 56.8516Q167.025 58.0476 166.514 58.9567Q166.221 59.4788 165.759 59.9062Q165.464 60.179 165.13 60.3878ZM257.615 62.4896Q256.752 62.8984 255.695 62.8984Q254.383 62.8984 253.625 62.3359Q253.273 62.072 253.086 61.7204Q252.875 61.3226 252.875 60.8125Q252.875 60.2054 253.153 59.7812Q253.8 58.7969 255.945 58.7969L259.375 58.7969L259.375 60.5625Q259.111 61.2818 258.623 61.7835Q258.332 62.0828 257.961 62.3047Q257.792 62.4058 257.615 62.4896Z" fill="#FFFFFF" fill-opacity="1.000000" fill-rule="evenodd"/>
	<path id="Andriod App On" d="M132.647 18.6442Q132.957 18.8027 133.348 18.8027Q133.773 18.8027 134.094 18.621Q134.252 18.5317 134.385 18.3984Q134.562 18.2217 134.662 18.0089Q134.79 17.7348 134.79 17.4009Q134.79 17.1206 134.684 16.888Q134.58 16.6574 134.372 16.4736Q134.244 16.3588 134.096 16.2796Q133.769 16.1045 133.348 16.1045Q132.957 16.1045 132.647 16.263Q132.473 16.3521 132.324 16.4912Q132.129 16.6741 132.026 16.8991Q131.911 17.1501 131.911 17.4536Q131.911 17.7571 132.026 18.0081Q132.129 18.2332 132.324 18.416Q132.473 18.5551 132.647 18.6442ZM121.792 30L121.792 16.645L119.542 16.645L119.542 21.5757Q119.267 21.2582 118.937 21.0181Q118.595 20.7698 118.193 20.6045Q117.402 20.2793 116.448 20.2793Q115.263 20.2793 114.282 20.7274Q114.114 20.8044 113.952 20.8945Q113.445 21.1739 113.039 21.559Q112.557 22.0159 112.216 22.6216Q112.195 22.6593 112.174 22.6974Q111.588 23.7869 111.588 25.1924Q111.588 26.5961 112.169 27.6907Q112.192 27.7338 112.216 27.7764Q112.566 28.4028 113.064 28.8712Q113.461 29.244 113.952 29.5166Q114.103 29.5999 114.259 29.6718Q115.249 30.1274 116.448 30.1274Q117.437 30.1274 118.254 29.7847Q118.69 29.6029 119.052 29.3247Q119.372 29.0783 119.634 28.7563L119.634 30L121.792 30ZM158.44 30L158.44 16.645L156.19 16.645L156.19 21.5757Q155.915 21.2582 155.585 21.0181Q155.243 20.7698 154.841 20.6045Q154.05 20.2793 153.096 20.2793Q151.911 20.2793 150.93 20.7274Q150.762 20.8044 150.6 20.8945Q150.093 21.1739 149.687 21.559Q149.205 22.0159 148.864 22.6216Q148.843 22.6593 148.822 22.6974Q148.236 23.7869 148.236 25.1924Q148.236 26.5961 148.817 27.6907Q148.84 27.7338 148.864 27.7764Q149.214 28.4028 149.712 28.8712Q150.109 29.244 150.6 29.5166Q150.751 29.5999 150.907 29.6718Q151.897 30.1274 153.096 30.1274Q154.085 30.1274 154.902 29.7847Q155.338 29.6029 155.7 29.3247Q156.02 29.0783 156.282 28.7563L156.282 30L158.44 30ZM212.556 29.554Q213.939 30.1802 215.606 30.1802Q217.293 30.1802 218.688 29.5415Q218.888 29.4499 219.082 29.3452Q219.981 28.8577 220.655 28.1551Q221.142 27.6482 221.512 27.0293Q221.725 26.6739 221.886 26.2966Q222.396 25.1063 222.396 23.6982Q222.396 22.3081 221.897 21.1289Q221.732 20.7387 221.512 20.3716Q221.138 19.7455 220.644 19.2348Q219.973 18.541 219.082 18.0601Q218.877 17.9485 218.664 17.8517Q217.279 17.2207 215.606 17.2207Q213.954 17.2207 212.58 17.8393Q212.353 17.9413 212.134 18.0601Q211.268 18.5276 210.61 19.199Q210.093 19.7267 209.704 20.3804Q209.445 20.8166 209.262 21.2828Q208.821 22.4039 208.821 23.6982Q208.821 25.0107 209.272 26.1438Q209.452 26.5965 209.704 27.0205Q210.089 27.6672 210.599 28.1914Q211.261 28.8713 212.134 29.3452Q212.342 29.4571 212.556 29.554ZM87.3203 30L88.564 27.082L94.8657 27.082L96.1226 30L98.5703 30L92.8838 17.4009L90.5811 17.4009L84.9121 30L87.3203 30ZM167.204 30L168.448 27.082L174.75 27.082L176.007 30L178.454 30L172.768 17.4009L170.465 17.4009L164.796 30L167.204 30ZM217.529 27.7354Q216.656 28.1279 215.606 28.1279Q214.588 28.1279 213.732 27.7561Q213.531 27.6688 213.339 27.561Q212.872 27.298 212.497 26.9385Q212.065 26.5231 211.757 25.979Q211.631 25.7567 211.533 25.523Q211.181 24.6845 211.181 23.6982Q211.181 22.7188 211.53 21.8862Q211.629 21.6504 211.757 21.4263Q212.072 20.8685 212.515 20.4462Q212.883 20.0966 213.339 19.8398Q213.531 19.732 213.732 19.6447Q214.588 19.2729 215.606 19.2729Q216.656 19.2729 217.529 19.6655Q217.705 19.7447 217.874 19.8398Q218.343 20.1032 218.719 20.4643Q219.152 20.8804 219.46 21.4263Q219.587 21.6504 219.686 21.8862Q220.036 22.7188 220.036 23.6982Q220.036 24.6845 219.684 25.523Q219.586 25.7567 219.46 25.979Q219.158 26.5112 218.737 26.9202Q218.355 27.2913 217.874 27.561Q217.705 27.6562 217.529 27.7354ZM91.7148 19.7388L94.0879 25.2495L89.355 25.2495L91.7148 19.7388ZM171.599 19.7388L173.972 25.2495L169.239 25.2495L171.599 19.7388ZM107.85 20.9536Q106.861 20.2793 105.412 20.2793Q104.349 20.2793 103.501 20.6221Q102.901 20.8655 102.446 21.2708Q102.26 21.4362 102.099 21.6284L102.099 20.3892L99.9586 20.3892L99.9586 30L102.209 30L102.209 25.1396Q102.209 23.7825 102.884 23.039Q102.906 23.0146 102.929 22.9907Q103.09 22.8242 103.276 22.6947Q103.926 22.2437 104.889 22.2437Q105.811 22.2437 106.378 22.6926Q106.486 22.7785 106.581 22.8809Q107.174 23.5181 107.174 24.7793L107.174 30L109.424 30L109.424 24.4937Q109.424 22.5061 108.432 21.4509Q108.38 21.3955 108.326 21.3428Q108.103 21.1261 107.85 20.9536ZM127.305 21.2733Q127.068 21.5051 126.885 21.791L126.885 20.3892L124.745 20.3892L124.745 30L126.995 30L126.995 25.3374Q126.995 23.9356 127.693 23.1739Q127.713 23.1524 127.733 23.1313Q127.862 22.9981 128.008 22.888Q128.7 22.3667 129.785 22.3667Q130.018 22.3667 130.308 22.4238L130.308 20.2793Q128.32 20.2793 127.305 21.2733ZM139.385 29.6371Q140.448 30.1274 141.736 30.1274Q143.106 30.1274 144.212 29.5864Q144.298 29.5444 144.382 29.499Q145.05 29.1373 145.55 28.6148Q145.925 28.2232 146.206 27.7412Q146.329 27.53 146.43 27.3083Q146.865 26.3489 146.865 25.1924Q146.865 24.0319 146.424 23.0742Q146.326 22.8604 146.206 22.6567Q145.935 22.1949 145.576 21.8166Q145.067 21.2805 144.382 20.9121Q144.285 20.8599 144.187 20.812Q143.091 20.2793 141.736 20.2793Q140.462 20.2793 139.409 20.7619Q139.257 20.8319 139.108 20.9121Q138.429 21.2774 137.922 21.8075Q137.556 22.1893 137.28 22.6567Q137.167 22.8503 137.073 23.0529Q136.626 24.0191 136.626 25.1924Q136.626 26.3618 137.067 27.3296Q137.163 27.5402 137.28 27.7412Q137.566 28.2289 137.948 28.6242Q138.446 29.1406 139.108 29.499Q139.245 29.5723 139.385 29.6371ZM187.454 20.7757Q186.432 20.2793 185.169 20.2793Q184.18 20.2793 183.358 20.6221Q182.927 20.803 182.567 21.0783Q182.246 21.3245 181.983 21.646L181.983 20.3892L179.843 20.3892L179.843 33.4937L182.093 33.4937L182.093 28.8311Q182.464 29.2552 182.921 29.5406Q183.862 30.1274 185.169 30.1274Q186.447 30.1274 187.478 29.623Q187.581 29.5723 187.682 29.5166Q188.173 29.244 188.57 28.8712Q189.068 28.4028 189.418 27.7764Q189.442 27.7338 189.465 27.6907Q190.047 26.5961 190.047 25.1924Q190.047 23.7869 189.46 22.6974Q189.439 22.6593 189.418 22.6216Q189.077 22.0159 188.595 21.559Q188.189 21.1739 187.682 20.8945Q187.57 20.832 187.454 20.7757ZM199.802 20.7757Q198.78 20.2793 197.517 20.2793Q196.528 20.2793 195.706 20.6221Q195.275 20.803 194.915 21.0783Q194.594 21.3245 194.331 21.646L194.331 20.3892L192.191 20.3892L192.191 33.4937L194.441 33.4937L194.441 28.8311Q194.812 29.2552 195.269 29.5406Q196.21 30.1274 197.517 30.1274Q198.795 30.1274 199.826 29.623Q199.929 29.5723 200.03 29.5166Q200.521 29.244 200.918 28.8712Q201.416 28.4028 201.766 27.7764Q201.79 27.7338 201.813 27.6907Q202.395 26.5961 202.395 25.1924Q202.395 23.7869 201.808 22.6974Q201.787 22.6593 201.766 22.6216Q201.425 22.0159 200.943 21.559Q200.537 21.1739 200.03 20.8945Q199.918 20.832 199.802 20.7757ZM232.554 20.9536Q231.565 20.2793 230.116 20.2793Q229.053 20.2793 228.205 20.6221Q227.605 20.8655 227.15 21.2708Q226.964 21.4362 226.803 21.6284L226.803 20.3892L224.663 20.3892L224.663 30L226.913 30L226.913 25.1396Q226.913 23.7825 227.588 23.039Q227.61 23.0146 227.633 22.9907Q227.794 22.8242 227.98 22.6947Q228.63 22.2437 229.593 22.2437Q230.515 22.2437 231.082 22.6926Q231.19 22.7785 231.285 22.8809Q231.878 23.5181 231.878 24.7793L231.878 30L234.128 30L234.128 24.4937Q234.128 22.5061 233.136 21.4509Q233.084 21.3955 233.03 21.3428Q232.807 21.1261 232.554 20.9536ZM134.465 20.3892L132.215 20.3892L132.215 30L134.465 30L134.465 20.3892ZM117.917 27.9572Q117.369 28.1982 116.716 28.1982Q116.075 28.1982 115.533 27.966Q115.392 27.9055 115.257 27.8291Q115.036 27.7026 114.846 27.5394Q114.481 27.2265 114.233 26.7788Q113.855 26.0933 113.855 25.1924Q113.855 24.2959 114.233 23.6104Q114.487 23.1495 114.862 22.8317Q115.045 22.6767 115.257 22.5557Q115.392 22.4793 115.533 22.4187Q116.075 22.1865 116.716 22.1865Q117.369 22.1865 117.917 22.4276Q118.047 22.4848 118.171 22.5557Q118.396 22.6836 118.589 22.8494Q118.952 23.1623 119.199 23.6104Q119.577 24.2959 119.577 25.1924Q119.577 26.0933 119.199 26.7788Q118.958 27.2137 118.605 27.5214Q118.406 27.6957 118.171 27.8291Q118.047 27.9 117.917 27.9572ZM143.112 27.88Q142.508 28.1982 141.736 28.1982Q140.956 28.1982 140.35 27.8729Q139.991 27.6798 139.693 27.3721Q139.515 27.1884 139.377 26.9787Q138.893 26.245 138.893 25.1924Q138.893 24.15 139.371 23.4199Q139.511 23.205 139.693 23.0171Q139.995 22.7035 140.36 22.5083Q140.962 22.1865 141.736 22.1865Q142.502 22.1865 143.102 22.5011Q143.478 22.6977 143.789 23.0171Q143.982 23.2147 144.129 23.4422Q144.597 24.1659 144.597 25.1924Q144.597 26.2291 144.123 26.9564Q143.978 27.1787 143.789 27.3721Q143.482 27.6855 143.112 27.88ZM154.565 27.9572Q154.017 28.1982 153.364 28.1982Q152.723 28.1982 152.181 27.966Q152.04 27.9055 151.905 27.8291Q151.684 27.7026 151.494 27.5394Q151.129 27.2265 150.881 26.7788Q150.503 26.0933 150.503 25.1924Q150.503 24.2959 150.881 23.6104Q151.135 23.1495 151.51 22.8317Q151.693 22.6767 151.905 22.5557Q152.04 22.4793 152.181 22.4187Q152.723 22.1865 153.364 22.1865Q154.017 22.1865 154.565 22.4276Q154.695 22.4848 154.819 22.5557Q155.044 22.6836 155.237 22.8494Q155.6 23.1623 155.847 23.6104Q156.225 24.2959 156.225 25.1924Q156.225 26.0933 155.847 26.7788Q155.606 27.2137 155.253 27.5214Q155.054 27.6957 154.819 27.8291Q154.695 27.9 154.565 27.9572ZM186.304 27.8729Q185.699 28.1982 184.918 28.1982Q184.277 28.1982 183.735 27.966Q183.594 27.9055 183.459 27.8291Q183.238 27.7026 183.048 27.5394Q182.684 27.2265 182.435 26.7788Q182.057 26.0933 182.057 25.1924Q182.057 24.2959 182.435 23.6104Q182.689 23.1495 183.065 22.8317Q183.248 22.6767 183.459 22.5557Q183.594 22.4793 183.735 22.4187Q184.277 22.1865 184.918 22.1865Q185.692 22.1865 186.294 22.5083Q186.66 22.7035 186.962 23.0171Q187.144 23.205 187.284 23.4199Q187.762 24.15 187.762 25.1924Q187.762 26.245 187.278 26.9787Q187.139 27.1884 186.962 27.3721Q186.664 27.6798 186.304 27.8729ZM198.652 27.8729Q198.047 28.1982 197.266 28.1982Q196.625 28.1982 196.083 27.966Q195.942 27.9055 195.807 27.8291Q195.586 27.7026 195.396 27.5394Q195.032 27.2265 194.783 26.7788Q194.405 26.0933 194.405 25.1924Q194.405 24.2959 194.783 23.6104Q195.037 23.1495 195.413 22.8317Q195.596 22.6767 195.807 22.5557Q195.942 22.4793 196.083 22.4187Q196.625 22.1865 197.266 22.1865Q198.04 22.1865 198.642 22.5083Q199.008 22.7035 199.31 23.0171Q199.492 23.205 199.632 23.4199Q200.11 24.15 200.11 25.1924Q200.11 26.245 199.626 26.9787Q199.487 27.1884 199.31 27.3721Q199.012 27.6798 198.652 27.8729Z" fill="#FFFFFF" fill-opacity="1.000000" fill-rule="evenodd"/>
	<rect id="google-play 1" width="50.000000" height="50.000000" transform="translate(28.000000 16.000000)" fill="#FFFFFF" fill-opacity="0"/>
	<g clip-path="url(#clip8_136)">
		<path id="Vector" d="M56.7685 41.0044L31.6597 65.1825C30.4839 64.3789 29.7858 63.0422 29.7981 61.6182L29.7981 20.3905C29.7858 18.9664 30.4839 17.6299 31.6597 16.8263L56.7685 41.0044Z" fill="#2196F3" fill-opacity="1.000000" fill-rule="nonzero"/>
		<path id="Vector" d="M65.5544 32.5591L56.7685 41.0044L31.6597 16.8263C31.7543 16.7531 31.8528 16.6848 31.9548 16.6219C33.2818 15.8177 34.9394 15.7917 36.291 16.554L65.5544 32.5591Z" fill="#4CAF50" fill-opacity="1.000000" fill-rule="nonzero"/>
		<path id="Vector" d="M76.2018 41.0044C76.2182 42.6121 75.3446 44.097 73.9316 44.8639L65.5544 49.4497L56.7686 41.0044L65.5544 32.5591L73.9316 37.1449C75.3446 37.9117 76.2182 39.3967 76.2018 41.0044Z" fill="#FFC107" fill-opacity="1.000000" fill-rule="nonzero"/>
		<path id="Vector" d="M65.5544 49.4497L36.291 65.455C34.9364 66.2052 33.2851 66.1793 31.9548 65.3868C31.8528 65.324 31.7543 65.2559 31.6597 65.1825L56.7686 41.0044L65.5544 49.4497Z" fill="#F44336" fill-opacity="1.000000" fill-rule="nonzero"/>
	</g>
</svg>
